<?xml version="1.0" standalone="no"?><!DOCTYPE svg PUBLIC "-//W3C//DTD SVG 1.1//EN" "http://www.w3.org/Graphics/SVG/1.1/DTD/svg11.dtd"><svg t="1559561792710" class="icon" style="" viewBox="0 0 1024 1024" version="1.1" xmlns="http://www.w3.org/2000/svg" p-id="3256" xmlns:xlink="http://www.w3.org/1999/xlink" width="200" height="200"><defs><style type="text/css"></style></defs><path d="M738.728423 534.875433c-70.399123 0-127.673029-57.592023-127.673029-128.381386 0-8.241415 6.963796-15.205211 15.207787-15.205211s15.206499 6.962508 15.206499 15.205211c0 54.018038 43.788071 97.965812 97.610346 97.965812 53.823562 0 97.612921-43.789359 97.612921-97.612921 0-6.985691-0.853893-13.882515-2.769033-22.364771l-0.060532-0.269176-100.438623-209.011764L292.402803 175.201227 191.965468 384.567169l-0.059244 0.231826c-1.967945 7.611621-2.770321 13.999716-2.770321 22.04923 0 54.018038 43.789359 97.9671 97.611634 97.9671 53.822274 0 97.60777-43.949062 97.60777-97.9671 0-8.243991 6.965084-15.210363 15.209075-15.210363 8.528622 0 15.209075 6.681741 15.209075 15.210363 0 70.594887-57.273906 128.027207-127.674317 128.027207C216.504252 534.875433 159.073219 477.28341 159.073219 406.494047c0-10.231255 1.342015-20.204926 4.220521-31.387955l0.023183-0.09273 0.029622-0.083715c0.162278-0.476531 0.321981-0.879651 0.482971-1.277619 0.193188-0.485547 0.349027-0.877075 0.504866-1.330424l0.047653-0.137808 105.036506-218.203665c1.512021-3.241701 5.057671-7.071982 13.436894-7.071982l460.116693 0c6.337866 0 11.235834 2.707213 13.438182 7.428736l104.663008 218.874673c0.360618 0.719949 0.712221 1.421866 1.050945 2.427734l0.03091 0.090155 0.025758 0.094018c2.917144 11.322125 4.216658 21.222384 4.216658 32.088585C866.397588 477.919643 809.126258 534.875433 738.728423 534.875433z" p-id="3257"></path><path d="M512.737979 534.519966c-70.400411 0-127.675605-57.432321-127.675605-128.025919 0-8.053378 6.802806-14.856184 14.854896-14.856184s14.853608 6.802806 14.853608 14.856184c0 54.018038 43.947774 97.965812 97.965812 97.965812 54.016751 0 97.963236-43.947774 97.963236-97.965812 0-8.053378 6.801518-14.856184 14.853608-14.856184 8.050802 0 14.85232 6.802806 14.85232 14.856184C640.407144 477.088933 583.134526 534.519966 512.737979 534.519966z" p-id="3258"></path><path d="M299.125757 806.135058c-39.782633 0-72.148121-33.792506-72.148121-75.330577L226.977636 565.291006c0-8.526046 6.680453-15.206499 15.207787-15.206499 8.526046 0 15.205211 6.680453 15.205211 15.206499l0 165.513475c0 24.766746 18.721239 44.916291 41.733835 44.916291l427.576047 0c23.012596 0 41.733835-20.149545 41.733835-44.916291L768.434352 565.291006c0-8.526046 6.680453-15.206499 15.209075-15.206499 8.524758 0 15.202635 6.680453 15.202635 15.206499l0 165.513475c0.177733 20.538497-7.596166 39.777481-21.889528 54.19062-13.515457 13.632658-31.238556 21.139957-49.901839 21.139957L299.125757 806.135058z" p-id="3259"></path><path d="M394.25814 806.485373c-8.625216 0-15.91228-6.962508-15.91228-15.203923L378.34586 565.641321c0-7.956784 7.584575-15.203923 15.91228-15.203923 8.626504 0 15.916144 6.962508 15.916144 15.203923l0 225.640129C410.174285 799.522865 402.884644 806.485373 394.25814 806.485373z" p-id="3260"></path></svg>